<?xml version="1.0" encoding="UTF-8"?>
<svg width="317px" height="84px" viewBox="0 0 317 84" version="1.1" xmlns="http://www.w3.org/2000/svg" xmlns:xlink="http://www.w3.org/1999/xlink">
    <title>Philter</title>
    <g id="Page-1" stroke="none" stroke-width="1" fill="none" fill-rule="evenodd">
        <g id="Philter" transform="translate(-3.000000, -32.000000)">
            <g id="Text" fill="#FF1C66" fill-rule="nonzero">
                <path d="M76.0275862,109.685039 L76.0275862,79.7007874 L100.855172,79.7007874 L100.855172,109.685039 L117.186207,109.685039 L117.186207,37.8110236 L100.855172,37.8110236 L100.855172,65.480315 L76.0275862,65.480315 L76.0275862,37.8110236 L59.8068966,37.8110236 L59.8068966,109.685039 L76.0275862,109.685039 Z M135.5341,109.685039 L135.5341,37.8110236 L119.31341,37.8110236 L119.31341,109.685039 L135.5341,109.685039 Z M182.350958,109.685039 L182.350958,96.015748 L153.881992,96.015748 L153.881992,37.8110236 L137.661303,37.8110236 L137.661303,109.685039 L182.350958,109.685039 Z M197.057471,109.685039 L197.057471,51.480315 L216.809195,51.480315 L216.809195,37.8110236 L160.974713,37.8110236 L160.974713,51.480315 L180.726437,51.480315 L180.726437,109.685039 L197.057471,109.685039 Z M259.322605,109.685039 L259.322605,96.015748 L229.419157,96.015748 L229.419157,79.480315 L253.915709,79.480315 L253.915709,65.9212598 L229.419157,65.9212598 L229.419157,51.480315 L258.219157,51.480315 L258.219157,37.8110236 L213.198467,37.8110236 L213.198467,109.685039 L259.322605,109.685039 Z M275.022222,109.685039 L275.022222,83.7795276 L283.960153,83.7795276 L297.753257,109.685039 L315.960153,109.685039 L299.629119,80.9133858 C303.527969,79.2230971 306.636015,76.6692913 308.953257,73.2519685 C311.270498,69.8346457 312.429119,65.480315 312.429119,60.1889764 C312.429119,55.9265092 311.693487,52.3622047 310.222222,49.496063 C308.750958,46.6299213 306.764751,44.3333333 304.263602,42.6062992 C301.762452,40.8792651 298.838314,39.648294 295.491188,38.9133858 C292.144061,38.1784777 288.557854,37.8110236 284.732567,37.8110236 L284.732567,37.8110236 L258.801533,37.8110236 L258.801533,109.685039 L275.022222,109.685039 Z M283.408429,70.8818898 L275.022222,70.8818898 L275.022222,50.7086614 L283.408429,50.7086614 C287.675096,50.7086614 290.930268,51.4068241 293.173946,52.8031496 C295.417625,54.1994751 296.539464,56.6614173 296.539464,60.1889764 C296.539464,63.7165354 295.417625,66.3805774 293.173946,68.1811024 C290.930268,69.9816273 287.675096,70.8818898 283.408429,70.8818898 L283.408429,70.8818898 Z" id="HILTER"></path>
                <path d="M24.7172414,108.582677 L24.7172414,84.2204724 L33.6551724,84.2204724 C37.4804598,84.2204724 41.0850575,83.7427822 44.4689655,82.7874016 C47.8528736,81.832021 50.8321839,80.3622047 53.4068966,78.3779528 C55.9816092,76.3937008 58.0229885,73.8582677 59.5310345,70.7716535 C61.0390805,67.6850394 61.7931034,64.0472441 61.7931034,59.8582677 C61.7931034,55.5223097 61.0390805,51.8661417 59.5310345,48.8897638 C58.0229885,45.9133858 55.9816092,43.5249344 53.4068966,41.7244094 C50.8321839,39.9238845 47.816092,38.6377953 44.3586207,37.8661417 C40.9011494,37.0944882 37.1862069,36.7086614 33.2137931,36.7086614 L33.2137931,36.7086614 L8.49655172,36.7086614 L8.49655172,108.582677 L24.7172414,108.582677 Z M32.662069,71.3228346 L24.7172414,71.3228346 L24.7172414,49.6062992 L32.2206897,49.6062992 C36.6344828,49.6062992 40.0183908,50.3779528 42.3724138,51.9212598 C44.7264368,53.4645669 45.9034483,56.1102362 45.9034483,59.8582677 C45.9034483,67.5013123 41.4896552,71.3228346 32.662069,71.3228346 L32.662069,71.3228346 Z" id="P"></path>
            </g>
            <path d="M318.355035,102.130256 L318.355035,107.642067 L3.32055243,104.886162 L318.355035,102.130256 Z M318.355035,92.2089962 L318.355035,97.7208073 L3.32055243,94.9649017 L318.355035,92.2089962 Z M318.355035,81.1853742 L318.355035,86.6971852 L3.32055243,83.9412797 L318.355035,81.1853742 Z M318.355035,70.1617521 L318.355035,75.6735632 L3.32055243,72.9176576 L318.355035,70.1617521 Z M318.355035,59.1381301 L318.355035,64.6499411 L3.32055243,61.8940356 L318.355035,59.1381301 Z M318.355035,48.114508 L318.355035,53.6263191 L3.32055243,50.8704136 L318.355035,48.114508 Z M318.355035,38.1932482 L318.355035,43.7050592 L3.32055243,40.9491537 L318.355035,38.1932482 Z" id="Cutouts" fill="#FFFFFF" transform="translate(160.837794, 72.917658) rotate(3.000000) translate(-160.837794, -72.917658) "></path>
        </g>
    </g>
</svg>