<?xml version="1.0" encoding="UTF-8"?>
<svg width="562px" height="133px" viewBox="0 0 562 133" version="1.1" xmlns="http://www.w3.org/2000/svg" xmlns:xlink="http://www.w3.org/1999/xlink">
    <title>Philter</title>
    <g id="Page-1" stroke="none" stroke-width="1" fill="none" fill-rule="evenodd">
        <g id="Philter" transform="translate(-15.000000, -66.000000)">
            <g id="Text" fill="#FF1C66" fill-rule="nonzero">
                <path d="M137.8,199 L137.8,144.6 L182.8,144.6 L182.8,199 L212.4,199 L212.4,68.6 L182.8,68.6 L182.8,118.8 L137.8,118.8 L137.8,68.6 L108.4,68.6 L108.4,199 L137.8,199 Z M245.655556,199 L245.655556,68.6 L216.255556,68.6 L216.255556,199 L245.655556,199 Z M330.511111,199 L330.511111,174.2 L278.911111,174.2 L278.911111,68.6 L249.511111,68.6 L249.511111,199 L330.511111,199 Z M357.166667,199 L357.166667,93.4 L392.966667,93.4 L392.966667,68.6 L291.766667,68.6 L291.766667,93.4 L327.566667,93.4 L327.566667,199 L357.166667,199 Z M470.022222,199 L470.022222,174.2 L415.822222,174.2 L415.822222,144.2 L460.222222,144.2 L460.222222,119.6 L415.822222,119.6 L415.822222,93.4 L468.022222,93.4 L468.022222,68.6 L386.422222,68.6 L386.422222,199 L470.022222,199 Z M498.477778,199 L498.477778,152 L514.677778,152 L539.677778,199 L572.677778,199 L543.077778,146.8 C550.144444,143.733333 555.777778,139.1 559.977778,132.9 C564.177778,126.7 566.277778,118.8 566.277778,109.2 C566.277778,101.466667 564.944444,95 562.277778,89.8 C559.611111,84.6 556.011111,80.4333333 551.477778,77.3 C546.944444,74.1666667 541.644444,71.9333333 535.577778,70.6 C529.511111,69.2666667 523.011111,68.6 516.077778,68.6 L516.077778,68.6 L469.077778,68.6 L469.077778,199 L498.477778,199 Z M513.677778,128.6 L498.477778,128.6 L498.477778,92 L513.677778,92 C521.411111,92 527.311111,93.2666667 531.377778,95.8 C535.444444,98.3333333 537.477778,102.8 537.477778,109.2 C537.477778,115.6 535.444444,120.433333 531.377778,123.7 C527.311111,126.966667 521.411111,128.6 513.677778,128.6 L513.677778,128.6 Z" id="HILTER"></path>
                <path d="M44.8,197 L44.8,152.8 L61,152.8 C67.9333333,152.8 74.4666667,151.933333 80.6,150.2 C86.7333333,148.466667 92.1333333,145.8 96.8,142.2 C101.466667,138.6 105.166667,134 107.9,128.4 C110.633333,122.8 112,116.2 112,108.6 C112,100.733333 110.633333,94.1 107.9,88.7 C105.166667,83.3 101.466667,78.9666667 96.8,75.7 C92.1333333,72.4333333 86.6666667,70.1 80.4,68.7 C74.1333333,67.3 67.4,66.6 60.2,66.6 L60.2,66.6 L15.4,66.6 L15.4,197 L44.8,197 Z M59.2,129.4 L44.8,129.4 L44.8,90 L58.4,90 C66.4,90 72.5333333,91.4 76.8,94.2 C81.0666667,97 83.2,101.8 83.2,108.6 C83.2,122.466667 75.2,129.4 59.2,129.4 L59.2,129.4 Z" id="P"></path>
            </g>
            <path d="M577,187 L577,197 L33,192 L577,187 Z M577,169 L577,179 L33,174 L577,169 Z M577,149 L577,159 L33,154 L577,149 Z M577,129 L577,139 L33,134 L577,129 Z M577,109 L577,119 L33,114 L577,109 Z M577,89 L577,99 L33,94 L577,89 Z M577,71 L577,81 L33,76 L577,71 Z" id="Cutouts" fill="#FFFFFF"></path>
        </g>
    </g>
</svg>