<?xml version="1.0" encoding="UTF-8"?>
<svg width="308px" height="74px" viewBox="0 0 308 74" version="1.1" xmlns="http://www.w3.org/2000/svg" xmlns:xlink="http://www.w3.org/1999/xlink">
    <title>Philter</title>
    <defs>
        <linearGradient x1="0%" y1="47.1832614%" x2="100%" y2="52.8167386%" id="linearGradient-1">
            <stop stop-color="#FF3D9F" offset="0%"></stop>
            <stop stop-color="#BB01BA" offset="100%"></stop>
        </linearGradient>
    </defs>
    <g id="Page-1" stroke="none" stroke-width="1" fill="none" fill-rule="evenodd">
        <g id="Philter" fill="url(#linearGradient-1)" fill-rule="nonzero">
            <path d="M92.8543221,66.6546614 L109.185322,67.6536614 L109.186207,73.6850394 L92.8551724,73.6850394 L92.8543221,66.6546614 Z M51.8063221,64.1426614 L68.0273221,65.1356614 L68.0275862,73.6850394 L51.8068966,73.6850394 L51.8063221,64.1426614 Z M111.313322,67.7836614 L127.533322,68.7766614 L127.5341,73.6850394 L111.31341,73.6850394 L111.313322,67.7836614 Z M129.660322,68.9066614 L172.726322,71.5416614 L172.726437,73.6850394 L129.661303,73.6850394 L129.660322,68.9066614 Z M174.350322,71.6406614 L189.057322,72.5406614 L189.057471,73.6850394 L174.350958,73.6850394 L174.350322,71.6406614 Z M205.198322,73.5276614 L207.757322,73.6846614 L205.198467,73.6850394 L205.198322,73.5276614 Z M287.043322,68.5956614 L305.719322,69.7386614 L307.960153,73.6850394 L293.738322,73.6846614 L289.657322,73.5066614 L287.043322,68.5956614 Z M0.496322112,61.0036614 L16.7163221,61.9956614 L16.7172414,72.5826772 L0.496551724,72.5826772 L0.496322112,61.0036614 Z M251.322322,66.4106614 L267.021322,67.3706614 L267.021322,72.5186614 L251.322322,71.8336614 L251.322322,66.4106614 Z M205.198322,63.5886614 L250.801322,66.3786614 L250.801322,71.8106614 L205.198322,69.8206614 L205.198322,63.5886614 Z M174.350322,61.7016614 L189.057322,62.6006614 L189.057322,69.1166614 L174.350322,68.4746614 L174.350322,61.7016614 Z M129.660322,58.9666614 L145.881322,59.9596614 L145.881992,60.015748 L146.798322,60.0156614 L172.726322,61.6016614 L172.726322,68.4036614 L129.660322,66.5236614 L129.660322,58.9666614 Z M111.313322,57.8446614 L127.533322,58.8366614 L127.533322,66.4316614 L111.313322,65.7236614 L111.313322,57.8446614 Z M92.8543221,56.7156614 L109.185322,57.7146614 L109.185322,65.6306614 L92.8543221,64.9176614 L92.8543221,56.7156614 Z M280.965322,57.1806614 L299.226322,58.2976614 L302.540322,64.1376614 L284.244322,63.3396614 L280.965322,57.1806614 Z M51.8073221,54.2036614 L68.0273221,55.1966614 L68.0273221,63.8346614 L51.8063221,63.1266614 L51.8073221,54.2036614 Z M250.801322,55.3356614 L267.021322,56.3276614 L267.021322,62.5876614 L251.322322,61.9026614 L251.322605,60.015748 L250.801322,60.0156614 L250.801322,55.3356614 Z M205.198322,52.5446614 L221.418322,53.5376614 L221.419157,60.015748 L250.801322,60.0156614 L250.801322,61.8806614 L205.198322,59.8906614 L205.198322,52.5446614 Z M0.496322112,51.0646614 L16.7163221,52.0566614 L16.7163221,61.5946614 L0.496322112,60.8866614 L0.496322112,51.0646614 Z M172.726322,50.5586614 L189.057322,51.5576614 L189.057322,59.1856614 L172.726322,58.4736614 L172.726322,50.5586614 Z M129.660322,47.9236614 L145.881322,48.9156614 L145.881322,57.3016614 L129.660322,56.5936614 L129.660322,47.9236614 Z M111.313322,46.8006614 L127.533322,47.7926614 L127.533322,56.5006614 L111.313322,55.7936614 L111.313322,46.8006614 Z M92.8543221,45.6716614 L109.185322,46.6706614 L109.185322,55.7006614 L92.8543221,54.9876614 L92.8543221,45.6716614 Z M51.8073221,43.1596614 L68.0273221,44.1526614 L68.0273221,53.9046614 L51.8073221,53.1966614 L51.8073221,43.1596614 Z M250.801322,44.2906614 L292.731322,46.8566614 L296.119322,52.8246614 L278.230322,52.0436614 L275.960153,47.7795276 L267.022222,47.7795276 L267.021322,51.5546614 L250.801322,50.8466614 L250.801322,44.2906614 Z M0.496322112,40.0206614 L44.9255341,42.7394814 C42.4628729,44.541681 39.6440167,45.8909877 36.4689655,46.7874016 C33.3106513,47.6790901 29.960092,48.1546573 26.4172874,48.2141032 L25.6551724,48.2204724 L16.7172414,48.2204724 L16.7163221,51.6656614 L0.496322112,50.9576614 L0.496322112,40.0206614 Z M205.198322,41.5006614 L237.538322,43.4796614 L221.419157,43.480315 L221.418322,49.5646614 L205.198322,48.8566614 L205.198322,41.5006614 Z M172.726322,39.5146614 L189.057322,40.5136614 L189.057322,48.1526614 L172.726322,47.4396614 L172.726322,39.5146614 Z M129.660322,36.8796614 L145.881322,37.8716614 L145.881322,46.2676614 L129.660322,45.5606614 L129.660322,36.8796614 Z M111.313322,35.7566614 L127.533322,36.7496614 L127.533322,45.4676614 L111.313322,44.7596614 L111.313322,35.7566614 Z M56.715355,32.4172815 L109.185322,35.6266614 L109.185322,44.6666614 L92.8543221,43.9536614 L92.8551724,43.7007874 L87.0513221,43.7006614 L51.8203221,42.1626614 L52.0587973,41.898985 C54.2077717,39.4615992 55.7830772,36.3030919 56.715355,32.4172815 Z M0.496322112,28.9766614 L16.7163221,29.9696614 L16.7172414,35.3228346 L24.662069,35.3228346 C29.9943097,35.3228346 33.7160993,33.9284841 35.8274379,31.1397832 L52.5832407,32.1644828 C52.2869322,33.0733251 51.9361968,33.942382 51.5310345,34.7716535 C50.1389144,37.6209948 48.2923057,40.0006383 45.9912084,41.9105839 L0.496322112,39.9236614 L0.496322112,28.9766614 Z M250.801322,33.2476614 L267.021322,34.2396614 L267.022222,34.8818898 L275.408429,34.8818898 C275.913058,34.8818898 276.403538,34.8692966 276.879869,34.8441102 L301.523751,36.3522901 C301.342104,36.6590713 301.151939,36.9589641 300.953257,37.2519685 C299.767177,39.0011247 298.373914,40.5240479 296.773468,41.820738 L250.801322,39.8126614 L250.801322,33.2476614 Z M205.198322,30.4576614 L245.915322,32.9486614 L245.915322,39.5996614 L205.198322,37.8226614 L205.198322,30.4576614 Z M172.726322,28.4706614 L189.057322,29.4696614 L189.057322,37.1186614 L172.726322,36.4056614 L172.726322,28.4706614 Z M129.660322,25.8356614 L145.881322,26.8276614 L145.881322,35.2346614 L129.660322,34.5266614 L129.660322,25.8356614 Z M111.313322,24.7126614 L127.533322,25.7056614 L127.533322,34.4336614 L111.313322,33.7256614 L111.313322,24.7126614 Z M57.6531251,21.4304642 L68.0273221,22.0646614 L68.0275862,29.480315 L92.8551724,29.480315 L92.8543221,23.5836614 L109.185322,24.5826614 L109.185322,33.6326614 L56.9504653,31.3550043 C57.4476682,28.9092389 57.7041016,26.1935505 57.7041016,23.206543 C57.7041016,22.6415433 57.6884357,22.0472708 57.6531251,21.4304642 Z M37.4324782,20.1928834 L53.6910563,21.1874399 C53.7590877,22.0470489 53.7931034,22.9373249 53.7931034,23.8582677 C53.7931034,26.5200048 53.4886653,28.9592016 52.879789,31.175858 L36.296859,30.4540729 C37.3679185,28.7191401 37.9034483,26.5205384 37.9034483,23.8582677 C37.9034483,22.4894397 37.7464583,21.2676449 37.4324782,20.1928834 Z M288.535322,24.5116614 L304.40529,25.4840357 C304.33016,27.4952876 304.077367,29.3628594 303.646913,31.0867511 L286.871655,30.354976 C287.983527,28.7275654 288.539464,26.6722322 288.539464,24.1889764 L288.535322,24.5116614 Z M0.496322112,17.9326614 L16.7163221,18.9256614 L16.7163221,29.5976614 L0.496322112,28.8896614 L0.496322112,17.9326614 Z M250.801322,22.2036614 L267.021322,23.1956614 L267.021322,29.4876614 L250.801322,28.7796614 L250.801322,22.2036614 Z M205.198322,19.4136614 L221.418322,20.4056614 L221.418322,27.4976614 L205.198322,26.7896614 L205.198322,19.4136614 Z M172.726322,17.4266614 L189.057322,18.4256614 L189.057322,26.0846614 L172.726322,25.3726614 L172.726322,17.4266614 Z M129.660322,14.7916614 L145.881322,15.7846614 L145.881322,24.2006614 L129.660322,23.4926614 L129.660322,14.7916614 Z M111.313322,13.6696614 L127.533322,14.6616614 L127.533322,23.3996614 L111.313322,22.6916614 L111.313322,13.6696614 Z M92.8543221,12.5396614 L109.185322,13.5396614 L109.185322,22.5996614 L92.8543221,21.8866614 L92.8543221,12.5396614 Z M54.5503306,10.1964331 L68.0273221,11.0216614 L68.0273221,20.8026614 L57.5721719,20.3475582 C57.2767295,17.1496266 56.4345638,13.4862784 54.5503306,10.1964331 Z M0.496322112,6.88966142 L49.6919602,9.89978123 C50.3743097,10.8200211 50.9873345,11.816682 51.5310345,12.8897638 C52.5909107,14.9816047 53.2783389,17.4092266 53.593319,20.1726293 L37.1838007,19.456135 C36.6008438,17.9461338 35.6637148,16.7678421 34.3724138,15.9212598 C32.0183908,14.3779528 28.6344828,13.6062992 24.2206897,13.6062992 L16.7172414,13.6062992 L16.7163221,18.5636614 L0.496322112,17.8556614 L0.496322112,6.88966142 Z M250.801322,12.2646614 L303.07708,15.4632584 C303.586049,16.8641166 303.951319,18.4013551 304.17289,20.074974 L287.528437,19.3490282 C286.972707,18.2827831 286.187877,17.4341569 285.173946,16.8031496 C282.930268,15.4068241 279.675096,14.7086614 275.408429,14.7086614 L275.408429,14.7086614 L267.022222,14.7086614 L267.021322,18.4536614 L250.801322,17.7456614 L250.801322,12.2646614 Z M208.808322,9.69566142 L250.218322,12.2286614 L250.219157,15.480315 L221.419157,15.480315 L221.418322,16.4636614 L205.198322,15.7556614 L205.198322,15.4796614 L208.809195,15.480315 L208.808322,9.69566142 Z M152.974322,6.27966142 L205.198322,9.47466142 L205.198322,15.4796614 L198.874322,15.4796614 L152.974322,13.4766614 L152.974322,6.27966142 Z M129.660322,4.85366142 L145.881322,5.84566142 L145.881322,13.1666614 L129.660322,12.4596614 L129.660322,4.85366142 Z M111.313322,3.73066142 L127.533322,4.72266142 L127.533322,12.3666614 L111.313322,11.6586614 L111.313322,3.73066142 Z M92.8543221,2.60166142 L109.185322,3.60066142 L109.185322,11.5656614 L92.8543221,10.8526614 L92.8543221,2.60166142 Z M276.732567,1.81102362 L277.548612,1.81664792 C281.06895,1.86539183 284.383142,2.23097113 287.491188,2.91338583 C290.838314,3.64829396 293.762452,4.87926509 296.263602,6.60629921 C297.633784,7.55240506 298.849428,8.66943857 299.910534,9.95739976 L250.801322,7.81466142 L250.801533,1.81102362 L276.732567,1.81102362 Z M68.0275862,1.81102362 L68.0273221,9.76966142 L53.9087829,9.15377934 C53.3024443,8.23544917 52.6059326,7.3552691 51.8075435,6.53306167 L51.8068966,1.81102362 L68.0275862,1.81102362 Z M25.2137931,0.708661417 L26.0610837,0.714566929 C29.7155993,0.765748031 33.1481117,1.1496063 36.3586207,1.86614173 C39.816092,2.63779528 42.8321839,3.92388451 45.4068966,5.72440945 C46.7188749,6.64189039 47.8923709,7.71202909 48.9273845,8.93482555 L0.496322112,6.82266142 L0.496551724,0.708661417 L25.2137931,0.708661417 Z M250.219157,1.81102362 L250.218322,7.78966142 L208.808322,5.98266142 L208.808322,1.81066142 L250.219157,1.81102362 Z M205.198467,1.81102362 L205.198322,5.82566142 L152.974322,3.54666142 L152.974713,1.81102362 L205.198467,1.81102362 Z M145.881992,1.81102362 L145.881322,3.23666142 L129.660322,2.52866142 L129.661303,1.81102362 L145.881992,1.81102362 Z M127.5341,1.81102362 L127.533322,2.43666142 L113.194322,1.81066142 L127.5341,1.81102362 Z" id="Combined-Shape"></path>
        </g>
    </g>
</svg>